<?xml version="1.0" encoding="UTF-8"?>
<svg xmlns="http://www.w3.org/2000/svg" xmlns:xlink="http://www.w3.org/1999/xlink" width="375pt" height="374.999991pt" viewBox="0 0 375 374.999991" version="1.2">
<defs>
<clipPath id="clip1">
  <path d="M 138.667969 37.429688 L 236.164062 37.429688 L 236.164062 134.929688 L 138.667969 134.929688 Z M 138.667969 37.429688 "/>
</clipPath>
<clipPath id="clip2">
  <path d="M 239.902344 37.429688 L 337.402344 37.429688 L 337.402344 134.929688 L 239.902344 134.929688 Z M 239.902344 37.429688 "/>
</clipPath>
<clipPath id="clip3">
  <path d="M 138.667969 138.667969 L 236.164062 138.667969 L 236.164062 236.167969 L 138.667969 236.167969 Z M 138.667969 138.667969 "/>
</clipPath>
<clipPath id="clip4">
  <path d="M 239.902344 138.667969 L 337.402344 138.667969 L 337.402344 236.167969 L 239.902344 236.167969 Z M 239.902344 138.667969 "/>
</clipPath>
<clipPath id="clip5">
  <path d="M 37.429688 37.429688 L 134.929688 37.429688 L 134.929688 134.929688 L 37.429688 134.929688 Z M 37.429688 37.429688 "/>
</clipPath>
<clipPath id="clip6">
  <path d="M 37.429688 138.667969 L 134.929688 138.667969 L 134.929688 236.167969 L 37.429688 236.167969 Z M 37.429688 138.667969 "/>
</clipPath>
<clipPath id="clip7">
  <path d="M 37.429688 239.902344 L 134.929688 239.902344 L 134.929688 337.402344 L 37.429688 337.402344 Z M 37.429688 239.902344 "/>
</clipPath>
<clipPath id="clip8">
  <path d="M 239.902344 239.902344 L 337.402344 239.902344 L 337.402344 337.402344 L 239.902344 337.402344 Z M 239.902344 239.902344 "/>
</clipPath>
<clipPath id="clip9">
  <path d="M 138.667969 239.902344 L 236.164062 239.902344 L 236.164062 337.402344 L 138.667969 337.402344 Z M 138.667969 239.902344 "/>
</clipPath>
</defs>
<g id="surface1">
<g clip-path="url(#clip1)" clip-rule="nonzero">
<path style=" stroke:none;fill-rule:nonzero;fill:rgb(90.589905%,29.798889%,23.529053%);fill-opacity:1;" d="M 138.667969 37.429688 L 236.167969 37.429688 L 236.167969 134.929688 L 138.667969 134.929688 Z M 138.667969 37.429688 "/>
</g>
<g clip-path="url(#clip2)" clip-rule="nonzero">
<path style=" stroke:none;fill-rule:nonzero;fill:rgb(94.509888%,76.858521%,5.879211%);fill-opacity:1;" d="M 239.902344 37.429688 L 337.402344 37.429688 L 337.402344 134.929688 L 239.902344 134.929688 Z M 239.902344 37.429688 "/>
</g>
<g clip-path="url(#clip3)" clip-rule="nonzero">
<path style=" stroke:none;fill-rule:nonzero;fill:rgb(94.509888%,76.858521%,5.879211%);fill-opacity:1;" d="M 138.667969 138.667969 L 236.167969 138.667969 L 236.167969 236.167969 L 138.667969 236.167969 Z M 138.667969 138.667969 "/>
</g>
<g clip-path="url(#clip4)" clip-rule="nonzero">
<path style=" stroke:none;fill-rule:nonzero;fill:rgb(90.589905%,29.798889%,23.529053%);fill-opacity:1;" d="M 239.902344 138.667969 L 337.402344 138.667969 L 337.402344 236.167969 L 239.902344 236.167969 Z M 239.902344 138.667969 "/>
</g>
<g clip-path="url(#clip5)" clip-rule="nonzero">
<path style=" stroke:none;fill-rule:nonzero;fill:rgb(94.509888%,76.858521%,5.879211%);fill-opacity:1;" d="M 37.429688 37.429688 L 134.929688 37.429688 L 134.929688 134.929688 L 37.429688 134.929688 Z M 37.429688 37.429688 "/>
</g>
<g clip-path="url(#clip6)" clip-rule="nonzero">
<path style=" stroke:none;fill-rule:nonzero;fill:rgb(90.589905%,29.798889%,23.529053%);fill-opacity:1;" d="M 37.429688 138.667969 L 134.929688 138.667969 L 134.929688 236.167969 L 37.429688 236.167969 Z M 37.429688 138.667969 "/>
</g>
<g clip-path="url(#clip7)" clip-rule="nonzero">
<path style=" stroke:none;fill-rule:nonzero;fill:rgb(94.509888%,76.858521%,5.879211%);fill-opacity:1;" d="M 37.429688 239.902344 L 134.929688 239.902344 L 134.929688 337.402344 L 37.429688 337.402344 Z M 37.429688 239.902344 "/>
</g>
<g clip-path="url(#clip8)" clip-rule="nonzero">
<path style=" stroke:none;fill-rule:nonzero;fill:rgb(94.509888%,76.858521%,5.879211%);fill-opacity:1;" d="M 239.902344 239.902344 L 337.402344 239.902344 L 337.402344 337.402344 L 239.902344 337.402344 Z M 239.902344 239.902344 "/>
</g>
<g clip-path="url(#clip9)" clip-rule="nonzero">
<path style=" stroke:none;fill-rule:nonzero;fill:rgb(90.589905%,29.798889%,23.529053%);fill-opacity:1;" d="M 138.667969 239.902344 L 236.167969 239.902344 L 236.167969 337.402344 L 138.667969 337.402344 Z M 138.667969 239.902344 "/>
</g>
<path style=" stroke:none;fill-rule:nonzero;fill:rgb(32.939148%,32.939148%,32.939148%);fill-opacity:1;" d="M 86.261719 74.558594 C 85.496094 74.558594 84.734375 74.636719 83.980469 74.785156 C 83.226562 74.933594 82.496094 75.15625 81.785156 75.449219 C 81.074219 75.746094 80.398438 76.105469 79.761719 76.53125 C 79.121094 76.960938 78.53125 77.445312 77.988281 77.988281 C 77.445312 78.53125 76.960938 79.121094 76.53125 79.761719 C 76.105469 80.398438 75.746094 81.074219 75.449219 81.785156 C 75.15625 82.496094 74.933594 83.226562 74.785156 83.980469 C 74.632812 84.734375 74.558594 85.496094 74.558594 86.261719 C 74.558594 87.03125 74.632812 87.792969 74.785156 88.546875 C 74.933594 89.300781 75.15625 90.03125 75.449219 90.742188 C 75.746094 91.453125 76.105469 92.125 76.53125 92.765625 C 76.960938 93.402344 77.445312 93.996094 77.988281 94.539062 C 78.53125 95.082031 79.121094 95.566406 79.761719 95.992188 C 80.398438 96.421875 81.074219 96.78125 81.785156 97.074219 C 82.496094 97.371094 83.226562 97.589844 83.980469 97.742188 C 84.734375 97.890625 85.496094 97.964844 86.261719 97.964844 C 87.03125 97.964844 87.792969 97.890625 88.546875 97.742188 C 89.300781 97.589844 90.03125 97.371094 90.742188 97.074219 C 91.453125 96.78125 92.125 96.421875 92.765625 95.992188 C 93.402344 95.566406 93.996094 95.082031 94.539062 94.539062 C 95.082031 93.996094 95.566406 93.402344 95.992188 92.765625 C 96.421875 92.125 96.78125 91.453125 97.074219 90.742188 C 97.371094 90.03125 97.589844 89.300781 97.742188 88.546875 C 97.890625 87.792969 97.964844 87.03125 97.964844 86.261719 C 97.964844 85.496094 97.890625 84.734375 97.742188 83.980469 C 97.589844 83.226562 97.371094 82.496094 97.074219 81.785156 C 96.78125 81.074219 96.421875 80.398438 95.992188 79.761719 C 95.566406 79.121094 95.082031 78.53125 94.539062 77.988281 C 93.996094 77.445312 93.402344 76.960938 92.765625 76.53125 C 92.125 76.105469 91.453125 75.746094 90.742188 75.449219 C 90.03125 75.15625 89.300781 74.933594 88.546875 74.785156 C 87.792969 74.636719 87.03125 74.558594 86.261719 74.558594 Z M 86.261719 74.558594 "/>
<path style=" stroke:none;fill-rule:nonzero;fill:rgb(32.939148%,32.939148%,32.939148%);fill-opacity:1;" d="M 288.738281 74.558594 C 287.96875 74.558594 287.207031 74.636719 286.453125 74.785156 C 285.699219 74.933594 284.96875 75.15625 284.257812 75.449219 C 283.546875 75.746094 282.875 76.105469 282.234375 76.53125 C 281.597656 76.960938 281.003906 77.445312 280.460938 77.988281 C 279.917969 78.53125 279.433594 79.121094 279.007812 79.761719 C 278.578125 80.398438 278.21875 81.074219 277.925781 81.785156 C 277.628906 82.496094 277.410156 83.226562 277.257812 83.980469 C 277.109375 84.734375 277.035156 85.496094 277.035156 86.261719 C 277.035156 87.03125 277.109375 87.792969 277.257812 88.546875 C 277.410156 89.300781 277.628906 90.03125 277.925781 90.742188 C 278.21875 91.453125 278.578125 92.125 279.007812 92.765625 C 279.433594 93.402344 279.917969 93.996094 280.460938 94.539062 C 281.003906 95.082031 281.597656 95.566406 282.234375 95.992188 C 282.875 96.421875 283.546875 96.78125 284.257812 97.074219 C 284.96875 97.371094 285.699219 97.589844 286.453125 97.742188 C 287.207031 97.890625 287.96875 97.964844 288.738281 97.964844 C 289.503906 97.964844 290.265625 97.890625 291.019531 97.742188 C 291.773438 97.589844 292.503906 97.371094 293.214844 97.074219 C 293.925781 96.78125 294.601562 96.421875 295.238281 95.992188 C 295.878906 95.566406 296.46875 95.082031 297.011719 94.539062 C 297.554688 93.996094 298.039062 93.402344 298.46875 92.765625 C 298.894531 92.125 299.253906 91.453125 299.550781 90.742188 C 299.84375 90.03125 300.066406 89.300781 300.214844 88.546875 C 300.363281 87.792969 300.441406 87.03125 300.441406 86.261719 C 300.441406 85.496094 300.363281 84.734375 300.214844 83.980469 C 300.066406 83.226562 299.84375 82.496094 299.550781 81.785156 C 299.253906 81.074219 298.894531 80.398438 298.46875 79.761719 C 298.039062 79.121094 297.554688 78.53125 297.011719 77.988281 C 296.46875 77.445312 295.878906 76.960938 295.238281 76.53125 C 294.601562 76.105469 293.925781 75.746094 293.214844 75.449219 C 292.503906 75.15625 291.773438 74.933594 291.019531 74.785156 C 290.265625 74.636719 289.503906 74.558594 288.738281 74.558594 Z M 288.738281 74.558594 "/>
<path style=" stroke:none;fill-rule:nonzero;fill:rgb(32.939148%,32.939148%,32.939148%);fill-opacity:1;" d="M 288.738281 277.035156 C 287.96875 277.035156 287.207031 277.109375 286.453125 277.257812 C 285.699219 277.410156 284.96875 277.628906 284.257812 277.925781 C 283.546875 278.21875 282.875 278.578125 282.234375 279.007812 C 281.597656 279.433594 281.003906 279.917969 280.460938 280.460938 C 279.917969 281.003906 279.433594 281.597656 279.007812 282.234375 C 278.578125 282.875 278.21875 283.546875 277.925781 284.257812 C 277.628906 284.96875 277.410156 285.699219 277.257812 286.453125 C 277.109375 287.207031 277.035156 287.96875 277.035156 288.738281 C 277.035156 289.503906 277.109375 290.265625 277.257812 291.019531 C 277.410156 291.773438 277.628906 292.503906 277.925781 293.214844 C 278.21875 293.925781 278.578125 294.601562 279.007812 295.238281 C 279.433594 295.878906 279.917969 296.46875 280.460938 297.011719 C 281.003906 297.554688 281.597656 298.039062 282.234375 298.46875 C 282.875 298.894531 283.546875 299.253906 284.257812 299.550781 C 284.96875 299.84375 285.699219 300.066406 286.453125 300.214844 C 287.207031 300.363281 287.96875 300.441406 288.738281 300.441406 C 289.503906 300.441406 290.265625 300.363281 291.019531 300.214844 C 291.773438 300.066406 292.503906 299.84375 293.214844 299.550781 C 293.925781 299.253906 294.601562 298.894531 295.238281 298.46875 C 295.878906 298.039062 296.46875 297.554688 297.011719 297.011719 C 297.554688 296.46875 298.039062 295.878906 298.46875 295.238281 C 298.894531 294.601562 299.253906 293.925781 299.550781 293.214844 C 299.84375 292.503906 300.066406 291.773438 300.214844 291.019531 C 300.363281 290.265625 300.441406 289.503906 300.441406 288.738281 C 300.441406 287.96875 300.363281 287.207031 300.214844 286.453125 C 300.066406 285.699219 299.84375 284.96875 299.550781 284.257812 C 299.253906 283.546875 298.894531 282.875 298.46875 282.234375 C 298.039062 281.597656 297.554688 281.003906 297.011719 280.460938 C 296.46875 279.917969 295.878906 279.433594 295.238281 279.007812 C 294.601562 278.578125 293.925781 278.21875 293.214844 277.925781 C 292.503906 277.628906 291.773438 277.410156 291.019531 277.257812 C 290.265625 277.109375 289.503906 277.035156 288.738281 277.035156 Z M 288.738281 277.035156 "/>
<path style=" stroke:none;fill-rule:nonzero;fill:rgb(32.939148%,32.939148%,32.939148%);fill-opacity:1;" d="M 86.261719 277.035156 C 85.496094 277.035156 84.734375 277.109375 83.980469 277.257812 C 83.226562 277.410156 82.496094 277.628906 81.785156 277.925781 C 81.074219 278.21875 80.398438 278.578125 79.761719 279.007812 C 79.121094 279.433594 78.53125 279.917969 77.988281 280.460938 C 77.445312 281.003906 76.960938 281.597656 76.53125 282.234375 C 76.105469 282.875 75.746094 283.546875 75.449219 284.257812 C 75.15625 284.96875 74.933594 285.699219 74.785156 286.453125 C 74.632812 287.207031 74.558594 287.96875 74.558594 288.738281 C 74.558594 289.503906 74.632812 290.265625 74.785156 291.019531 C 74.933594 291.773438 75.15625 292.503906 75.449219 293.214844 C 75.746094 293.925781 76.105469 294.601562 76.53125 295.238281 C 76.960938 295.878906 77.445312 296.46875 77.988281 297.011719 C 78.53125 297.554688 79.121094 298.039062 79.761719 298.46875 C 80.398438 298.894531 81.074219 299.253906 81.785156 299.550781 C 82.496094 299.84375 83.226562 300.066406 83.980469 300.214844 C 84.734375 300.363281 85.496094 300.441406 86.261719 300.441406 C 87.03125 300.441406 87.792969 300.363281 88.546875 300.214844 C 89.300781 300.066406 90.03125 299.84375 90.742188 299.550781 C 91.453125 299.253906 92.125 298.894531 92.765625 298.46875 C 93.402344 298.039062 93.996094 297.554688 94.539062 297.011719 C 95.082031 296.46875 95.566406 295.878906 95.992188 295.238281 C 96.421875 294.601562 96.78125 293.925781 97.074219 293.214844 C 97.371094 292.503906 97.589844 291.773438 97.742188 291.019531 C 97.890625 290.265625 97.964844 289.503906 97.964844 288.738281 C 97.964844 287.96875 97.890625 287.207031 97.742188 286.453125 C 97.589844 285.699219 97.371094 284.96875 97.074219 284.257812 C 96.78125 283.546875 96.421875 282.875 95.992188 282.234375 C 95.566406 281.597656 95.082031 281.003906 94.539062 280.460938 C 93.996094 279.917969 93.402344 279.433594 92.765625 279.007812 C 92.125 278.578125 91.453125 278.21875 90.742188 277.925781 C 90.03125 277.628906 89.300781 277.410156 88.546875 277.257812 C 87.792969 277.109375 87.03125 277.035156 86.261719 277.035156 Z M 86.261719 277.035156 "/>
<path style=" stroke:none;fill-rule:nonzero;fill:rgb(32.939148%,32.939148%,32.939148%);fill-opacity:1;" d="M 187.5 175.796875 C 186.730469 175.796875 185.96875 175.871094 185.21875 176.023438 C 184.464844 176.171875 183.730469 176.394531 183.019531 176.6875 C 182.3125 176.980469 181.636719 177.34375 180.996094 177.769531 C 180.359375 178.195312 179.769531 178.679688 179.222656 179.222656 C 178.679688 179.769531 178.195312 180.359375 177.769531 181 C 177.34375 181.636719 176.980469 182.3125 176.6875 183.019531 C 176.394531 183.730469 176.171875 184.464844 176.023438 185.21875 C 175.871094 185.96875 175.796875 186.730469 175.796875 187.5 C 175.796875 188.269531 175.871094 189.03125 176.023438 189.78125 C 176.171875 190.535156 176.394531 191.269531 176.6875 191.980469 C 176.980469 192.6875 177.34375 193.363281 177.769531 194 C 178.195312 194.640625 178.679688 195.230469 179.222656 195.777344 C 179.769531 196.320312 180.359375 196.804688 180.996094 197.230469 C 181.636719 197.65625 182.3125 198.019531 183.019531 198.3125 C 183.730469 198.605469 184.464844 198.828125 185.21875 198.976562 C 185.96875 199.128906 186.730469 199.203125 187.5 199.203125 C 188.269531 199.203125 189.03125 199.128906 189.78125 198.976562 C 190.535156 198.828125 191.269531 198.605469 191.980469 198.3125 C 192.6875 198.019531 193.363281 197.65625 194 197.230469 C 194.640625 196.804688 195.230469 196.320312 195.773438 195.777344 C 196.320312 195.230469 196.804688 194.640625 197.230469 194 C 197.65625 193.363281 198.019531 192.6875 198.3125 191.980469 C 198.605469 191.269531 198.828125 190.535156 198.976562 189.78125 C 199.128906 189.03125 199.203125 188.269531 199.203125 187.5 C 199.203125 186.730469 199.128906 185.96875 198.976562 185.21875 C 198.828125 184.464844 198.605469 183.730469 198.3125 183.019531 C 198.019531 182.3125 197.65625 181.636719 197.230469 181 C 196.804688 180.359375 196.320312 179.769531 195.773438 179.222656 C 195.230469 178.679688 194.640625 178.195312 194 177.769531 C 193.363281 177.34375 192.6875 176.980469 191.980469 176.6875 C 191.269531 176.394531 190.535156 176.171875 189.78125 176.023438 C 189.03125 175.871094 188.269531 175.796875 187.5 175.796875 Z M 187.5 175.796875 "/>
<path style=" stroke:none;fill-rule:nonzero;fill:rgb(100%,100%,100%);fill-opacity:1;" d="M 288.738281 175.796875 C 287.96875 175.796875 287.207031 175.871094 286.453125 176.023438 C 285.699219 176.171875 284.96875 176.394531 284.257812 176.6875 C 283.546875 176.980469 282.875 177.34375 282.234375 177.769531 C 281.597656 178.195312 281.003906 178.679688 280.460938 179.222656 C 279.917969 179.769531 279.433594 180.359375 279.007812 181 C 278.578125 181.636719 278.21875 182.3125 277.925781 183.019531 C 277.628906 183.730469 277.410156 184.464844 277.257812 185.21875 C 277.109375 185.96875 277.035156 186.730469 277.035156 187.5 C 277.035156 188.269531 277.109375 189.03125 277.257812 189.78125 C 277.410156 190.535156 277.628906 191.269531 277.925781 191.980469 C 278.21875 192.6875 278.578125 193.363281 279.007812 194 C 279.433594 194.640625 279.917969 195.230469 280.460938 195.777344 C 281.003906 196.320312 281.597656 196.804688 282.234375 197.230469 C 282.875 197.65625 283.546875 198.019531 284.257812 198.3125 C 284.96875 198.605469 285.699219 198.828125 286.453125 198.976562 C 287.207031 199.128906 287.96875 199.203125 288.738281 199.203125 C 289.503906 199.203125 290.265625 199.128906 291.019531 198.976562 C 291.773438 198.828125 292.503906 198.605469 293.214844 198.3125 C 293.925781 198.019531 294.601562 197.65625 295.238281 197.230469 C 295.878906 196.804688 296.46875 196.320312 297.011719 195.777344 C 297.554688 195.230469 298.039062 194.640625 298.46875 194 C 298.894531 193.363281 299.253906 192.6875 299.550781 191.980469 C 299.84375 191.269531 300.066406 190.535156 300.214844 189.78125 C 300.363281 189.03125 300.441406 188.269531 300.441406 187.5 C 300.441406 186.730469 300.363281 185.96875 300.214844 185.21875 C 300.066406 184.464844 299.84375 183.730469 299.550781 183.019531 C 299.253906 182.3125 298.894531 181.636719 298.46875 181 C 298.039062 180.359375 297.554688 179.769531 297.011719 179.222656 C 296.46875 178.679688 295.878906 178.195312 295.238281 177.769531 C 294.601562 177.34375 293.925781 176.980469 293.214844 176.6875 C 292.503906 176.394531 291.773438 176.171875 291.019531 176.023438 C 290.265625 175.871094 289.503906 175.796875 288.738281 175.796875 Z M 288.738281 175.796875 "/>
<path style=" stroke:none;fill-rule:nonzero;fill:rgb(100%,100%,100%);fill-opacity:1;" d="M 187.5 277.035156 C 186.730469 277.035156 185.96875 277.109375 185.21875 277.257812 C 184.464844 277.410156 183.730469 277.628906 183.019531 277.925781 C 182.3125 278.21875 181.636719 278.578125 180.996094 279.007812 C 180.359375 279.433594 179.769531 279.917969 179.222656 280.460938 C 178.679688 281.003906 178.195312 281.597656 177.769531 282.234375 C 177.34375 282.875 176.980469 283.546875 176.6875 284.257812 C 176.394531 284.96875 176.171875 285.699219 176.023438 286.453125 C 175.871094 287.207031 175.796875 287.96875 175.796875 288.738281 C 175.796875 289.503906 175.871094 290.265625 176.023438 291.019531 C 176.171875 291.773438 176.394531 292.503906 176.6875 293.214844 C 176.980469 293.925781 177.34375 294.601562 177.769531 295.238281 C 178.195312 295.878906 178.679688 296.46875 179.222656 297.011719 C 179.769531 297.554688 180.359375 298.039062 180.996094 298.46875 C 181.636719 298.894531 182.3125 299.253906 183.019531 299.550781 C 183.730469 299.84375 184.464844 300.066406 185.21875 300.214844 C 185.96875 300.363281 186.730469 300.441406 187.5 300.441406 C 188.269531 300.441406 189.03125 300.363281 189.78125 300.214844 C 190.535156 300.066406 191.269531 299.84375 191.980469 299.550781 C 192.6875 299.253906 193.363281 298.894531 194 298.46875 C 194.640625 298.039062 195.230469 297.554688 195.773438 297.011719 C 196.320312 296.46875 196.804688 295.878906 197.230469 295.238281 C 197.65625 294.601562 198.019531 293.925781 198.3125 293.214844 C 198.605469 292.503906 198.828125 291.773438 198.976562 291.019531 C 199.128906 290.265625 199.203125 289.503906 199.203125 288.738281 C 199.203125 287.96875 199.128906 287.207031 198.976562 286.453125 C 198.828125 285.699219 198.605469 284.96875 198.3125 284.257812 C 198.019531 283.546875 197.65625 282.875 197.230469 282.234375 C 196.804688 281.597656 196.320312 281.003906 195.773438 280.460938 C 195.230469 279.917969 194.640625 279.433594 194 279.007812 C 193.363281 278.578125 192.6875 278.21875 191.980469 277.925781 C 191.269531 277.628906 190.535156 277.410156 189.78125 277.257812 C 189.03125 277.109375 188.269531 277.035156 187.5 277.035156 Z M 187.5 277.035156 "/>
<path style=" stroke:none;fill-rule:nonzero;fill:rgb(100%,100%,100%);fill-opacity:1;" d="M 86.261719 175.796875 C 85.496094 175.796875 84.734375 175.871094 83.980469 176.023438 C 83.226562 176.171875 82.496094 176.394531 81.785156 176.6875 C 81.074219 176.980469 80.398438 177.34375 79.761719 177.769531 C 79.121094 178.195312 78.53125 178.679688 77.988281 179.222656 C 77.445312 179.769531 76.960938 180.359375 76.53125 181 C 76.105469 181.636719 75.746094 182.3125 75.449219 183.019531 C 75.15625 183.730469 74.933594 184.464844 74.785156 185.21875 C 74.632812 185.96875 74.558594 186.730469 74.558594 187.5 C 74.558594 188.269531 74.632812 189.03125 74.785156 189.78125 C 74.933594 190.535156 75.15625 191.269531 75.449219 191.980469 C 75.746094 192.6875 76.105469 193.363281 76.53125 194 C 76.960938 194.640625 77.445312 195.230469 77.988281 195.777344 C 78.53125 196.320312 79.121094 196.804688 79.761719 197.230469 C 80.398438 197.65625 81.074219 198.019531 81.785156 198.3125 C 82.496094 198.605469 83.226562 198.828125 83.980469 198.976562 C 84.734375 199.128906 85.496094 199.203125 86.261719 199.203125 C 87.03125 199.203125 87.792969 199.128906 88.546875 198.976562 C 89.300781 198.828125 90.03125 198.605469 90.742188 198.3125 C 91.453125 198.019531 92.125 197.65625 92.765625 197.230469 C 93.402344 196.804688 93.996094 196.320312 94.539062 195.777344 C 95.082031 195.230469 95.566406 194.640625 95.992188 194 C 96.421875 193.363281 96.78125 192.6875 97.074219 191.980469 C 97.371094 191.269531 97.589844 190.535156 97.742188 189.78125 C 97.890625 189.03125 97.964844 188.269531 97.964844 187.5 C 97.964844 186.730469 97.890625 185.96875 97.742188 185.21875 C 97.589844 184.464844 97.371094 183.730469 97.074219 183.019531 C 96.78125 182.3125 96.421875 181.636719 95.992188 181 C 95.566406 180.359375 95.082031 179.769531 94.539062 179.222656 C 93.996094 178.679688 93.402344 178.195312 92.765625 177.769531 C 92.125 177.34375 91.453125 176.980469 90.742188 176.6875 C 90.03125 176.394531 89.300781 176.171875 88.546875 176.023438 C 87.792969 175.871094 87.03125 175.796875 86.261719 175.796875 Z M 86.261719 175.796875 "/>
<path style=" stroke:none;fill-rule:nonzero;fill:rgb(100%,100%,100%);fill-opacity:1;" d="M 187.5 74.558594 C 186.730469 74.558594 185.96875 74.636719 185.21875 74.785156 C 184.464844 74.933594 183.730469 75.15625 183.019531 75.449219 C 182.3125 75.746094 181.636719 76.105469 180.996094 76.53125 C 180.359375 76.960938 179.769531 77.445312 179.222656 77.988281 C 178.679688 78.53125 178.195312 79.121094 177.769531 79.761719 C 177.34375 80.398438 176.980469 81.074219 176.6875 81.785156 C 176.394531 82.496094 176.171875 83.226562 176.023438 83.980469 C 175.871094 84.734375 175.796875 85.496094 175.796875 86.261719 C 175.796875 87.03125 175.871094 87.792969 176.023438 88.546875 C 176.171875 89.300781 176.394531 90.03125 176.6875 90.742188 C 176.980469 91.453125 177.34375 92.125 177.769531 92.765625 C 178.195312 93.402344 178.679688 93.996094 179.222656 94.539062 C 179.769531 95.082031 180.359375 95.566406 180.996094 95.992188 C 181.636719 96.421875 182.3125 96.78125 183.019531 97.074219 C 183.730469 97.371094 184.464844 97.589844 185.21875 97.742188 C 185.96875 97.890625 186.730469 97.964844 187.5 97.964844 C 188.269531 97.964844 189.03125 97.890625 189.78125 97.742188 C 190.535156 97.589844 191.269531 97.371094 191.980469 97.074219 C 192.6875 96.78125 193.363281 96.421875 194 95.992188 C 194.640625 95.566406 195.230469 95.082031 195.773438 94.539062 C 196.320312 93.996094 196.804688 93.402344 197.230469 92.765625 C 197.65625 92.125 198.019531 91.453125 198.3125 90.742188 C 198.605469 90.03125 198.828125 89.300781 198.976562 88.546875 C 199.128906 87.792969 199.203125 87.03125 199.203125 86.261719 C 199.203125 85.496094 199.128906 84.734375 198.976562 83.980469 C 198.828125 83.226562 198.605469 82.496094 198.3125 81.785156 C 198.019531 81.074219 197.65625 80.398438 197.230469 79.761719 C 196.804688 79.121094 196.320312 78.53125 195.773438 77.988281 C 195.230469 77.445312 194.640625 76.960938 194 76.53125 C 193.363281 76.105469 192.6875 75.746094 191.980469 75.449219 C 191.269531 75.15625 190.535156 74.933594 189.78125 74.785156 C 189.03125 74.636719 188.269531 74.558594 187.5 74.558594 Z M 187.5 74.558594 "/>
</g>
</svg>
